<?xml version="1.0" standalone="no"?>
<!DOCTYPE svg PUBLIC "-//W3C//DTD SVG 20010904//EN"
 "http://www.w3.org/TR/2001/REC-SVG-20010904/DTD/svg10.dtd">
<svg version="1.0" xmlns="http://www.w3.org/2000/svg"
 width="700.000000pt" height="700.000000pt" viewBox="0 0 700.000000 700.000000"
 preserveAspectRatio="xMidYMid meet">
<metadata>
Created by Shoniz Mahmoud
</metadata>
<g transform="translate(0.000000,700.000000) scale(0.100000,-0.100000)"
fill="#000000" stroke="none">
<path d="M3175 6969 c-1646 -87 -3020 -1272 -3150 -2719 -18 -195 -18 -365 0
-560 130 -1447 1504 -2632 3150 -2719 195 -10 365 -10 560 0 1646 87 3020
1272 3150 2719 18 195 18 365 0 560 -130 1447 -1504 2632 -3150 2719 -97 5
-463 5 -560 0z m675 -1449 c385 -75 742 -294 1005 -615 105 -128 245 -368
245 -420 0 -11 -42 -63 -93 -117 l-93 -98 -49 74 c-175 262 -402 466 -680
612 -171 90 -311 135 -505 162 -118 16 -372 16 -490 0 -394 -55 -741 -230
-1020 -513 -279 -283 -454 -630 -513 -1020 -16 -118 -16 -372 0 -490 55 -390
230 -737 513 -1020 283 -279 630 -454 1020 -513 118 -16 372 -16 490 0 390
55 737 230 1020 513 279 283 454 630 513 1020 16 118 16 372 0 490 -27 194
-72 334 -162 505 -146 278 -350 505 -612 680 l-74 49 98 93 c54 51 106 93
117 93 52 0 292 -140 420 -245 321 -263 540 -620 615 -1005 28 -144 28 -456
0 -600 -108 -553 -398 -1043 -820 -1385 -422 -342 -952 -532 -1500 -538 -548
-6 -1078 184 -1500 538 -422 342 -712 832 -820 1385 -28 144 -28 456 0 600
108 553 398 1043 820 1385 342 422 832 712 1385 820 144 28 456 28 600 0z"/>
<path d="M3230 4200 l0 -550 -550 0 -550 0 0 -150 0 -150 550 0 550 0 0 -550
0 -550 150 0 150 0 0 550 0 550 550 0 550 0 0 150 0 150 -550 0 -550 0 0 550
0 550 -150 0 -150 0 0 -550z"/>
</g>
</svg>